<svg xmlns="http://www.w3.org/2000/svg" xmlns:xlink="http://www.w3.org/1999/xlink" width="500" zoomAndPan="magnify" viewBox="0 0 375 374.999991" height="500" preserveAspectRatio="xMidYMid meet" version="1.0"><defs><g/><clipPath id="0e5d344917"><path d="M 125.296875 85 L 249.796875 85 L 249.796875 200 L 125.296875 200 Z M 125.296875 85 " clip-rule="nonzero"/></clipPath><clipPath id="1f541a649a"><path d="M 206.765625 96.988281 L 214.105469 109.710938 L 246.785156 166.335938 C 255.332031 181.144531 244.648438 199.683594 227.554688 199.683594 L 209.175781 199.683594 C 201.558594 199.683594 195.3125 193.648438 195.039062 186.027344 C 194.847656 180.761719 194.820312 177.03125 194.820312 177.03125 C 194.820312 177.03125 199.230469 177.636719 199.695312 175.113281 C 200.300781 171.683594 197.890625 171.765625 197.890625 171.765625 C 197.890625 168.804688 195.257812 169.324219 195.257812 169.324219 L 195.339844 166.886719 C 195.339844 166.886719 198.082031 166.777344 198.464844 165.046875 C 198.875 163.320312 196.464844 162.523438 196.464844 162.523438 C 196.464844 162.523438 202.382812 152.734375 205.121094 147.03125 C 207.859375 141.328125 209.394531 128.605469 209.394531 128.605469 L 203.503906 132.992188 C 203.503906 132.992188 199.75 130.03125 196.984375 129.125 C 194.246094 128.21875 193.3125 129.125 193.3125 129.125 C 193.121094 124.242188 187.589844 124.242188 187.589844 124.242188 C 187.589844 124.242188 182.027344 124.242188 181.835938 129.125 C 181.835938 129.125 180.933594 128.21875 178.195312 129.125 C 175.425781 130.03125 171.703125 132.992188 171.703125 132.992188 L 165.785156 128.605469 C 165.785156 128.605469 167.320312 141.328125 170.058594 147.03125 C 172.796875 152.734375 178.6875 162.523438 178.6875 162.523438 C 178.6875 162.523438 176.304688 163.320312 176.6875 165.046875 C 177.070312 166.777344 179.808594 166.886719 179.808594 166.886719 L 179.917969 169.324219 C 179.917969 169.324219 177.289062 168.804688 177.289062 171.765625 C 177.289062 171.765625 174.851562 171.710938 175.453125 175.113281 C 175.921875 177.664062 180.332031 177.03125 180.332031 177.03125 C 180.332031 177.03125 180.304688 180.789062 180.109375 186.027344 C 179.835938 193.648438 173.589844 199.683594 165.976562 199.683594 L 147.597656 199.683594 C 130.503906 199.683594 119.820312 181.144531 128.367188 166.335938 L 144.800781 137.84375 L 168.359375 96.988281 C 176.90625 82.152344 198.273438 82.152344 206.820312 96.988281 Z M 206.765625 96.988281 " clip-rule="nonzero"/></clipPath><linearGradient x1="21.067633" gradientTransform="matrix(2.739274, 0, 0, 2.742206, 125.298165, 85.853268)" y1="44.393858" x2="27.540547" gradientUnits="userSpaceOnUse" y2="-2.893001" id="b9b7e9bbe4"><stop stop-opacity="1" stop-color="rgb(20.639038%, 17.81311%, 81.446838%)" offset="0"/><stop stop-opacity="1" stop-color="rgb(20.446777%, 17.91687%, 81.318665%)" offset="0.0078125"/><stop stop-opacity="1" stop-color="rgb(20.062256%, 18.12439%, 81.065369%)" offset="0.015625"/><stop stop-opacity="1" stop-color="rgb(19.676208%, 18.333435%, 80.810547%)" offset="0.0234375"/><stop stop-opacity="1" stop-color="rgb(19.291687%, 18.54248%, 80.555725%)" offset="0.03125"/><stop stop-opacity="1" stop-color="rgb(18.907166%, 18.75%, 80.302429%)" offset="0.0390625"/><stop stop-opacity="1" stop-color="rgb(18.522644%, 18.959045%, 80.047607%)" offset="0.046875"/><stop stop-opacity="1" stop-color="rgb(18.138123%, 19.166565%, 79.792786%)" offset="0.0546875"/><stop stop-opacity="1" stop-color="rgb(17.753601%, 19.37561%, 79.53949%)" offset="0.0625"/><stop stop-opacity="1" stop-color="rgb(17.36908%, 19.584656%, 79.284668%)" offset="0.0703125"/><stop stop-opacity="1" stop-color="rgb(16.984558%, 19.792175%, 79.029846%)" offset="0.078125"/><stop stop-opacity="1" stop-color="rgb(16.600037%, 20.001221%, 78.775024%)" offset="0.0859375"/><stop stop-opacity="1" stop-color="rgb(16.215515%, 20.210266%, 78.521729%)" offset="0.09375"/><stop stop-opacity="1" stop-color="rgb(15.830994%, 20.417786%, 78.266907%)" offset="0.101563"/><stop stop-opacity="1" stop-color="rgb(15.444946%, 20.626831%, 78.012085%)" offset="0.109375"/><stop stop-opacity="1" stop-color="rgb(15.060425%, 20.835876%, 77.758789%)" offset="0.117188"/><stop stop-opacity="1" stop-color="rgb(14.675903%, 21.043396%, 77.503967%)" offset="0.125"/><stop stop-opacity="1" stop-color="rgb(14.291382%, 21.252441%, 77.249146%)" offset="0.129149"/><stop stop-opacity="1" stop-color="rgb(14.099121%, 21.356201%, 77.122498%)" offset="0.132812"/><stop stop-opacity="1" stop-color="rgb(13.90686%, 21.459961%, 76.99585%)" offset="0.140625"/><stop stop-opacity="1" stop-color="rgb(13.522339%, 21.669006%, 76.741028%)" offset="0.148438"/><stop stop-opacity="1" stop-color="rgb(13.137817%, 21.878052%, 76.486206%)" offset="0.15625"/><stop stop-opacity="1" stop-color="rgb(12.753296%, 22.085571%, 76.231384%)" offset="0.164062"/><stop stop-opacity="1" stop-color="rgb(12.368774%, 22.294617%, 75.978088%)" offset="0.171875"/><stop stop-opacity="1" stop-color="rgb(11.984253%, 22.503662%, 75.723267%)" offset="0.179687"/><stop stop-opacity="1" stop-color="rgb(11.598206%, 22.711182%, 75.468445%)" offset="0.1875"/><stop stop-opacity="1" stop-color="rgb(11.213684%, 22.920227%, 75.215149%)" offset="0.195312"/><stop stop-opacity="1" stop-color="rgb(10.829163%, 23.129272%, 74.960327%)" offset="0.203125"/><stop stop-opacity="1" stop-color="rgb(10.444641%, 23.336792%, 74.705505%)" offset="0.210937"/><stop stop-opacity="1" stop-color="rgb(10.06012%, 23.545837%, 74.452209%)" offset="0.21875"/><stop stop-opacity="1" stop-color="rgb(9.675598%, 23.754883%, 74.197388%)" offset="0.226562"/><stop stop-opacity="1" stop-color="rgb(9.291077%, 23.962402%, 73.942566%)" offset="0.234375"/><stop stop-opacity="1" stop-color="rgb(8.906555%, 24.171448%, 73.687744%)" offset="0.242187"/><stop stop-opacity="1" stop-color="rgb(8.522034%, 24.378967%, 73.434448%)" offset="0.25"/><stop stop-opacity="1" stop-color="rgb(8.137512%, 24.588013%, 73.179626%)" offset="0.257813"/><stop stop-opacity="1" stop-color="rgb(7.751465%, 24.797058%, 72.924805%)" offset="0.265625"/><stop stop-opacity="1" stop-color="rgb(7.366943%, 25.004578%, 72.671509%)" offset="0.273438"/><stop stop-opacity="1" stop-color="rgb(6.982422%, 25.213623%, 72.416687%)" offset="0.28125"/><stop stop-opacity="1" stop-color="rgb(6.5979%, 25.422668%, 72.161865%)" offset="0.289063"/><stop stop-opacity="1" stop-color="rgb(6.213379%, 25.630188%, 71.908569%)" offset="0.296875"/><stop stop-opacity="1" stop-color="rgb(5.828857%, 25.839233%, 71.653748%)" offset="0.304688"/><stop stop-opacity="1" stop-color="rgb(5.444336%, 26.048279%, 71.398926%)" offset="0.3125"/><stop stop-opacity="1" stop-color="rgb(5.059814%, 26.255798%, 71.144104%)" offset="0.320313"/><stop stop-opacity="1" stop-color="rgb(4.675293%, 26.464844%, 70.890808%)" offset="0.328125"/><stop stop-opacity="1" stop-color="rgb(4.290771%, 26.672363%, 70.635986%)" offset="0.335938"/><stop stop-opacity="1" stop-color="rgb(3.904724%, 26.881409%, 70.381165%)" offset="0.34375"/><stop stop-opacity="1" stop-color="rgb(3.520203%, 27.090454%, 70.127869%)" offset="0.351563"/><stop stop-opacity="1" stop-color="rgb(3.135681%, 27.297974%, 69.873047%)" offset="0.359375"/><stop stop-opacity="1" stop-color="rgb(2.75116%, 27.507019%, 69.618225%)" offset="0.367188"/><stop stop-opacity="1" stop-color="rgb(2.366638%, 27.716064%, 69.364929%)" offset="0.375"/><stop stop-opacity="1" stop-color="rgb(1.982117%, 27.923584%, 69.110107%)" offset="0.382813"/><stop stop-opacity="1" stop-color="rgb(1.597595%, 28.132629%, 68.855286%)" offset="0.390625"/><stop stop-opacity="1" stop-color="rgb(1.213074%, 28.341675%, 68.600464%)" offset="0.398438"/><stop stop-opacity="1" stop-color="rgb(0.828552%, 28.549194%, 68.347168%)" offset="0.40625"/><stop stop-opacity="1" stop-color="rgb(0.444031%, 28.75824%, 68.092346%)" offset="0.414062"/><stop stop-opacity="1" stop-color="rgb(0.125122%, 29.023743%, 67.823792%)" offset="0.421875"/><stop stop-opacity="1" stop-color="rgb(0%, 29.454041%, 67.512512%)" offset="0.425781"/><stop stop-opacity="1" stop-color="rgb(0%, 29.722595%, 67.34314%)" offset="0.429688"/><stop stop-opacity="1" stop-color="rgb(0%, 29.99115%, 67.172241%)" offset="0.433594"/><stop stop-opacity="1" stop-color="rgb(0%, 30.259705%, 67.002869%)" offset="0.4375"/><stop stop-opacity="1" stop-color="rgb(0%, 30.528259%, 66.83197%)" offset="0.441406"/><stop stop-opacity="1" stop-color="rgb(0%, 30.796814%, 66.662598%)" offset="0.445312"/><stop stop-opacity="1" stop-color="rgb(0%, 31.065369%, 66.493225%)" offset="0.449219"/><stop stop-opacity="1" stop-color="rgb(0%, 31.333923%, 66.323853%)" offset="0.453125"/><stop stop-opacity="1" stop-color="rgb(0%, 31.602478%, 66.152954%)" offset="0.457031"/><stop stop-opacity="1" stop-color="rgb(0%, 31.872559%, 65.983582%)" offset="0.460938"/><stop stop-opacity="1" stop-color="rgb(0%, 32.141113%, 65.814209%)" offset="0.464844"/><stop stop-opacity="1" stop-color="rgb(0%, 32.409668%, 65.644836%)" offset="0.46875"/><stop stop-opacity="1" stop-color="rgb(0%, 32.678223%, 65.473938%)" offset="0.472656"/><stop stop-opacity="1" stop-color="rgb(0%, 32.946777%, 65.304565%)" offset="0.476562"/><stop stop-opacity="1" stop-color="rgb(0%, 33.215332%, 65.135193%)" offset="0.480469"/><stop stop-opacity="1" stop-color="rgb(0%, 33.483887%, 64.96582%)" offset="0.484375"/><stop stop-opacity="1" stop-color="rgb(0%, 33.752441%, 64.794922%)" offset="0.488281"/><stop stop-opacity="1" stop-color="rgb(0%, 34.020996%, 64.625549%)" offset="0.492188"/><stop stop-opacity="1" stop-color="rgb(0%, 34.289551%, 64.456177%)" offset="0.496094"/><stop stop-opacity="1" stop-color="rgb(0%, 34.559631%, 64.286804%)" offset="0.5"/><stop stop-opacity="1" stop-color="rgb(0%, 34.828186%, 64.115906%)" offset="0.503906"/><stop stop-opacity="1" stop-color="rgb(0%, 35.096741%, 63.946533%)" offset="0.507812"/><stop stop-opacity="1" stop-color="rgb(0%, 35.365295%, 63.777161%)" offset="0.511719"/><stop stop-opacity="1" stop-color="rgb(0%, 35.63385%, 63.607788%)" offset="0.515625"/><stop stop-opacity="1" stop-color="rgb(0%, 35.902405%, 63.43689%)" offset="0.519531"/><stop stop-opacity="1" stop-color="rgb(0%, 36.170959%, 63.267517%)" offset="0.523438"/><stop stop-opacity="1" stop-color="rgb(0%, 36.439514%, 63.098145%)" offset="0.527344"/><stop stop-opacity="1" stop-color="rgb(0%, 36.708069%, 62.928772%)" offset="0.53125"/><stop stop-opacity="1" stop-color="rgb(0%, 36.976624%, 62.757874%)" offset="0.535156"/><stop stop-opacity="1" stop-color="rgb(0%, 37.246704%, 62.588501%)" offset="0.539062"/><stop stop-opacity="1" stop-color="rgb(0%, 37.515259%, 62.419128%)" offset="0.542969"/><stop stop-opacity="1" stop-color="rgb(0%, 37.783813%, 62.249756%)" offset="0.546875"/><stop stop-opacity="1" stop-color="rgb(0%, 38.052368%, 62.078857%)" offset="0.550781"/><stop stop-opacity="1" stop-color="rgb(0%, 38.320923%, 61.909485%)" offset="0.554688"/><stop stop-opacity="1" stop-color="rgb(0%, 38.589478%, 61.740112%)" offset="0.558594"/><stop stop-opacity="1" stop-color="rgb(0%, 38.858032%, 61.57074%)" offset="0.5625"/><stop stop-opacity="1" stop-color="rgb(0%, 39.126587%, 61.399841%)" offset="0.566406"/><stop stop-opacity="1" stop-color="rgb(0%, 39.395142%, 61.230469%)" offset="0.570312"/><stop stop-opacity="1" stop-color="rgb(0%, 39.663696%, 61.061096%)" offset="0.574219"/><stop stop-opacity="1" stop-color="rgb(0%, 39.933777%, 60.891724%)" offset="0.578125"/><stop stop-opacity="1" stop-color="rgb(0%, 40.202332%, 60.720825%)" offset="0.582031"/><stop stop-opacity="1" stop-color="rgb(0%, 40.470886%, 60.551453%)" offset="0.585938"/><stop stop-opacity="1" stop-color="rgb(0%, 40.739441%, 60.38208%)" offset="0.589844"/><stop stop-opacity="1" stop-color="rgb(0%, 41.007996%, 60.212708%)" offset="0.59375"/><stop stop-opacity="1" stop-color="rgb(0%, 41.27655%, 60.041809%)" offset="0.597656"/><stop stop-opacity="1" stop-color="rgb(0%, 41.545105%, 59.872437%)" offset="0.601562"/><stop stop-opacity="1" stop-color="rgb(0%, 41.81366%, 59.701538%)" offset="0.605469"/><stop stop-opacity="1" stop-color="rgb(0%, 42.082214%, 59.532166%)" offset="0.609375"/><stop stop-opacity="1" stop-color="rgb(0%, 42.350769%, 59.362793%)" offset="0.613281"/><stop stop-opacity="1" stop-color="rgb(0%, 42.62085%, 59.19342%)" offset="0.617188"/><stop stop-opacity="1" stop-color="rgb(0%, 42.889404%, 59.022522%)" offset="0.621094"/><stop stop-opacity="1" stop-color="rgb(0%, 43.157959%, 58.853149%)" offset="0.625"/><stop stop-opacity="1" stop-color="rgb(0%, 43.426514%, 58.683777%)" offset="0.628906"/><stop stop-opacity="1" stop-color="rgb(0%, 43.695068%, 58.514404%)" offset="0.632812"/><stop stop-opacity="1" stop-color="rgb(0%, 43.963623%, 58.343506%)" offset="0.636719"/><stop stop-opacity="1" stop-color="rgb(0%, 44.232178%, 58.174133%)" offset="0.640625"/><stop stop-opacity="1" stop-color="rgb(0%, 44.500732%, 58.004761%)" offset="0.644531"/><stop stop-opacity="1" stop-color="rgb(0%, 44.769287%, 57.835388%)" offset="0.648438"/><stop stop-opacity="1" stop-color="rgb(0%, 45.037842%, 57.66449%)" offset="0.652344"/><stop stop-opacity="1" stop-color="rgb(0%, 45.307922%, 57.495117%)" offset="0.65625"/><stop stop-opacity="1" stop-color="rgb(0%, 45.576477%, 57.325745%)" offset="0.660156"/><stop stop-opacity="1" stop-color="rgb(0%, 45.845032%, 57.156372%)" offset="0.664062"/><stop stop-opacity="1" stop-color="rgb(0%, 46.113586%, 56.985474%)" offset="0.667969"/><stop stop-opacity="1" stop-color="rgb(0%, 46.382141%, 56.816101%)" offset="0.671875"/><stop stop-opacity="1" stop-color="rgb(0%, 46.650696%, 56.646729%)" offset="0.675781"/><stop stop-opacity="1" stop-color="rgb(0%, 46.91925%, 56.477356%)" offset="0.679687"/><stop stop-opacity="1" stop-color="rgb(0%, 47.187805%, 56.306458%)" offset="0.683594"/><stop stop-opacity="1" stop-color="rgb(0%, 47.45636%, 56.137085%)" offset="0.6875"/><stop stop-opacity="1" stop-color="rgb(0%, 47.724915%, 55.967712%)" offset="0.691406"/><stop stop-opacity="1" stop-color="rgb(0%, 47.994995%, 55.79834%)" offset="0.695312"/><stop stop-opacity="1" stop-color="rgb(0%, 48.26355%, 55.627441%)" offset="0.699219"/><stop stop-opacity="1" stop-color="rgb(0%, 48.532104%, 55.458069%)" offset="0.703125"/><stop stop-opacity="1" stop-color="rgb(0%, 48.800659%, 55.288696%)" offset="0.707031"/><stop stop-opacity="1" stop-color="rgb(0%, 49.069214%, 55.119324%)" offset="0.710937"/><stop stop-opacity="1" stop-color="rgb(0%, 49.337769%, 54.948425%)" offset="0.714844"/><stop stop-opacity="1" stop-color="rgb(0%, 49.606323%, 54.779053%)" offset="0.71875"/><stop stop-opacity="1" stop-color="rgb(0%, 49.874878%, 54.60968%)" offset="0.722656"/><stop stop-opacity="1" stop-color="rgb(0%, 50.143433%, 54.440308%)" offset="0.726562"/><stop stop-opacity="1" stop-color="rgb(0%, 50.411987%, 54.269409%)" offset="0.730469"/><stop stop-opacity="1" stop-color="rgb(0%, 50.682068%, 54.100037%)" offset="0.734375"/><stop stop-opacity="1" stop-color="rgb(0%, 50.950623%, 53.930664%)" offset="0.738281"/><stop stop-opacity="1" stop-color="rgb(0%, 51.219177%, 53.761292%)" offset="0.742187"/><stop stop-opacity="1" stop-color="rgb(0%, 51.487732%, 53.590393%)" offset="0.746094"/><stop stop-opacity="1" stop-color="rgb(0%, 51.756287%, 53.421021%)" offset="0.75"/><stop stop-opacity="1" stop-color="rgb(0%, 52.024841%, 53.251648%)" offset="0.753906"/><stop stop-opacity="1" stop-color="rgb(0%, 52.293396%, 53.082275%)" offset="0.757812"/><stop stop-opacity="1" stop-color="rgb(0%, 52.561951%, 52.911377%)" offset="0.761719"/><stop stop-opacity="1" stop-color="rgb(0%, 52.830505%, 52.742004%)" offset="0.765625"/><stop stop-opacity="1" stop-color="rgb(0%, 53.09906%, 52.571106%)" offset="0.769531"/><stop stop-opacity="1" stop-color="rgb(0%, 53.369141%, 52.401733%)" offset="0.773437"/><stop stop-opacity="1" stop-color="rgb(0%, 53.637695%, 52.232361%)" offset="0.777344"/><stop stop-opacity="1" stop-color="rgb(0%, 53.90625%, 52.062988%)" offset="0.78125"/><stop stop-opacity="1" stop-color="rgb(0%, 54.174805%, 51.89209%)" offset="0.785156"/><stop stop-opacity="1" stop-color="rgb(0%, 54.443359%, 51.722717%)" offset="0.789062"/><stop stop-opacity="1" stop-color="rgb(0%, 54.711914%, 51.553345%)" offset="0.792969"/><stop stop-opacity="1" stop-color="rgb(0%, 54.980469%, 51.383972%)" offset="0.796875"/><stop stop-opacity="1" stop-color="rgb(0%, 55.249023%, 51.213074%)" offset="0.800781"/><stop stop-opacity="1" stop-color="rgb(0%, 55.517578%, 51.043701%)" offset="0.804687"/><stop stop-opacity="1" stop-color="rgb(0%, 55.786133%, 50.874329%)" offset="0.808594"/><stop stop-opacity="1" stop-color="rgb(0%, 56.056213%, 50.704956%)" offset="0.8125"/><stop stop-opacity="1" stop-color="rgb(0%, 56.324768%, 50.534058%)" offset="0.816406"/><stop stop-opacity="1" stop-color="rgb(0%, 56.593323%, 50.364685%)" offset="0.820312"/><stop stop-opacity="1" stop-color="rgb(0%, 56.861877%, 50.195312%)" offset="0.824219"/><stop stop-opacity="1" stop-color="rgb(0%, 57.130432%, 50.02594%)" offset="0.828125"/><stop stop-opacity="1" stop-color="rgb(0%, 57.398987%, 49.855042%)" offset="0.832031"/><stop stop-opacity="1" stop-color="rgb(0%, 57.667542%, 49.685669%)" offset="0.835937"/><stop stop-opacity="1" stop-color="rgb(0%, 57.936096%, 49.516296%)" offset="0.839844"/><stop stop-opacity="1" stop-color="rgb(0%, 58.204651%, 49.346924%)" offset="0.84375"/><stop stop-opacity="1" stop-color="rgb(0%, 58.473206%, 49.176025%)" offset="0.847656"/><stop stop-opacity="1" stop-color="rgb(0%, 58.743286%, 49.006653%)" offset="0.851562"/><stop stop-opacity="1" stop-color="rgb(0%, 59.011841%, 48.83728%)" offset="0.855469"/><stop stop-opacity="1" stop-color="rgb(0%, 59.280396%, 48.667908%)" offset="0.859375"/><stop stop-opacity="1" stop-color="rgb(0%, 59.54895%, 48.497009%)" offset="0.863281"/><stop stop-opacity="1" stop-color="rgb(0%, 59.817505%, 48.327637%)" offset="0.867187"/><stop stop-opacity="1" stop-color="rgb(0%, 60.08606%, 48.158264%)" offset="0.871094"/><stop stop-opacity="1" stop-color="rgb(0%, 60.354614%, 47.988892%)" offset="0.875"/><stop stop-opacity="1" stop-color="rgb(0%, 60.623169%, 47.817993%)" offset="0.878906"/><stop stop-opacity="1" stop-color="rgb(0%, 60.89325%, 47.648621%)" offset="0.882812"/><stop stop-opacity="1" stop-color="rgb(0%, 61.161804%, 47.479248%)" offset="0.886719"/><stop stop-opacity="1" stop-color="rgb(0%, 61.430359%, 47.309875%)" offset="0.890625"/><stop stop-opacity="1" stop-color="rgb(0%, 61.698914%, 47.138977%)" offset="0.894531"/><stop stop-opacity="1" stop-color="rgb(0%, 61.967468%, 46.969604%)" offset="0.898437"/><stop stop-opacity="1" stop-color="rgb(0%, 62.236023%, 46.800232%)" offset="0.902344"/><stop stop-opacity="1" stop-color="rgb(0%, 62.504578%, 46.630859%)" offset="0.90625"/><stop stop-opacity="1" stop-color="rgb(0%, 62.773132%, 46.459961%)" offset="0.910156"/><stop stop-opacity="1" stop-color="rgb(0%, 63.041687%, 46.290588%)" offset="0.914062"/><stop stop-opacity="1" stop-color="rgb(0%, 63.310242%, 46.121216%)" offset="0.917969"/><stop stop-opacity="1" stop-color="rgb(0%, 63.580322%, 45.951843%)" offset="0.921875"/><stop stop-opacity="1" stop-color="rgb(0%, 63.848877%, 45.780945%)" offset="0.925781"/><stop stop-opacity="1" stop-color="rgb(0%, 64.117432%, 45.611572%)" offset="0.929687"/><stop stop-opacity="1" stop-color="rgb(0%, 64.385986%, 45.440674%)" offset="0.933594"/><stop stop-opacity="1" stop-color="rgb(0%, 64.654541%, 45.271301%)" offset="0.9375"/><stop stop-opacity="1" stop-color="rgb(0%, 64.923096%, 45.101929%)" offset="0.941406"/><stop stop-opacity="1" stop-color="rgb(0%, 65.19165%, 44.932556%)" offset="0.945312"/><stop stop-opacity="1" stop-color="rgb(0%, 65.460205%, 44.761658%)" offset="0.949219"/><stop stop-opacity="1" stop-color="rgb(0%, 65.72876%, 44.592285%)" offset="0.953125"/><stop stop-opacity="1" stop-color="rgb(0%, 65.997314%, 44.422913%)" offset="0.957031"/><stop stop-opacity="1" stop-color="rgb(0%, 66.267395%, 44.25354%)" offset="0.960937"/><stop stop-opacity="1" stop-color="rgb(0%, 66.53595%, 44.082642%)" offset="0.964844"/><stop stop-opacity="1" stop-color="rgb(0%, 66.804504%, 43.913269%)" offset="0.96875"/><stop stop-opacity="1" stop-color="rgb(0%, 67.073059%, 43.743896%)" offset="0.972656"/><stop stop-opacity="1" stop-color="rgb(0%, 67.341614%, 43.574524%)" offset="0.976562"/><stop stop-opacity="1" stop-color="rgb(0%, 67.610168%, 43.403625%)" offset="0.980469"/><stop stop-opacity="1" stop-color="rgb(0%, 67.878723%, 43.234253%)" offset="0.984375"/><stop stop-opacity="1" stop-color="rgb(0%, 68.147278%, 43.06488%)" offset="0.988281"/><stop stop-opacity="1" stop-color="rgb(0%, 68.415833%, 42.895508%)" offset="0.992188"/><stop stop-opacity="1" stop-color="rgb(0%, 68.684387%, 42.724609%)" offset="0.996094"/><stop stop-opacity="1" stop-color="rgb(0%, 68.954468%, 42.555237%)" offset="1"/></linearGradient></defs><g clip-path="url(#0e5d344917)"><g clip-path="url(#1f541a649a)"><path fill="url(#b9b7e9bbe4)" d="M 125.296875 84.644531 L 125.296875 199.683594 L 249.796875 199.683594 L 249.796875 84.644531 Z M 125.296875 84.644531 " fill-rule="nonzero"/></g></g><g fill="#d9d9d9" fill-opacity="1"><g transform="translate(77.393151, 245.85602)"><g><path d="M 17.160156 -24.960938 C 17.160156 -28.535156 15.21875 -30.4375 11.679688 -30.4375 L 7.417969 -30.4375 C 3.84375 -30.4375 1.902344 -28.535156 1.902344 -24.960938 L 1.902344 -5.480469 C 1.902344 -1.902344 3.84375 0 7.417969 0 L 11.679688 0 C 15.21875 0 17.160156 -1.902344 17.160156 -5.480469 L 17.160156 -9.589844 C 17.160156 -9.96875 16.929688 -10.195312 16.550781 -10.195312 L 12.746094 -10.195312 C 12.328125 -10.195312 12.136719 -9.96875 12.136719 -9.589844 L 12.136719 -6.542969 C 12.136719 -5.515625 11.605469 -5.023438 10.617188 -5.023438 L 8.636719 -5.023438 C 7.648438 -5.023438 7.113281 -5.515625 7.113281 -6.542969 L 7.113281 -23.894531 C 7.113281 -24.882812 7.609375 -25.414062 8.636719 -25.414062 L 10.617188 -25.414062 C 11.605469 -25.414062 12.136719 -24.882812 12.136719 -23.894531 L 12.136719 -20.851562 C 12.136719 -20.46875 12.328125 -20.242188 12.746094 -20.242188 L 16.550781 -20.242188 C 16.929688 -20.242188 17.160156 -20.46875 17.160156 -20.851562 Z M 17.160156 -24.960938 "/></g></g></g><g fill="#d9d9d9" fill-opacity="1"><g transform="translate(96.450732, 245.85602)"><g><path d="M 11.945312 -15.75 L 7.078125 -15.75 L 7.078125 -26.023438 C 7.078125 -26.40625 6.847656 -26.632812 6.46875 -26.632812 L 2.550781 -26.632812 C 2.09375 -26.632812 1.902344 -26.40625 1.902344 -26.023438 L 1.902344 -0.609375 C 1.902344 -0.226562 2.09375 0 2.550781 0 L 6.46875 0 C 6.847656 0 7.078125 -0.226562 7.078125 -0.609375 L 7.078125 -10.730469 L 11.945312 -10.730469 L 11.945312 -0.609375 C 11.945312 -0.226562 12.175781 0 12.554688 0 L 16.472656 0 C 16.929688 0 17.121094 -0.226562 17.121094 -0.609375 L 17.121094 -26.023438 C 17.121094 -26.40625 16.929688 -26.632812 16.472656 -26.632812 L 12.554688 -26.632812 C 12.175781 -26.632812 11.945312 -26.40625 11.945312 -26.023438 Z M 11.945312 -15.75 "/></g></g></g><g fill="#d9d9d9" fill-opacity="1"><g transform="translate(115.470274, 245.85602)"><g><path d="M 17.082031 -26.023438 C 17.082031 -26.40625 16.929688 -26.632812 16.472656 -26.632812 L 2.472656 -26.632812 C 2.128906 -26.632812 1.902344 -26.40625 1.902344 -26.023438 L 1.902344 -0.609375 C 1.902344 -0.226562 2.128906 0 2.472656 0 L 16.472656 0 C 16.929688 0 17.082031 -0.226562 17.082031 -0.609375 L 17.082031 -4.414062 C 17.082031 -4.832031 16.929688 -5.023438 16.472656 -5.023438 L 7.078125 -5.023438 L 7.078125 -10.652344 L 14.230469 -10.652344 C 14.609375 -10.652344 14.839844 -10.882812 14.839844 -11.300781 L 14.839844 -15.066406 C 14.839844 -15.484375 14.609375 -15.714844 14.230469 -15.714844 L 7.078125 -15.714844 L 7.078125 -21.574219 L 16.472656 -21.574219 C 16.929688 -21.574219 17.082031 -21.839844 17.082031 -22.21875 Z M 17.082031 -26.023438 "/></g></g></g><g fill="#d9d9d9" fill-opacity="1"><g transform="translate(134.451775, 245.85602)"><g><path d="M 7.382812 -26.632812 C 3.84375 -26.632812 1.902344 -24.730469 1.902344 -21.15625 L 1.902344 -14.570312 C 1.902344 -13.847656 2.246094 -13.394531 2.929688 -13.164062 L 12.0625 -10.195312 L 12.0625 -6.355469 C 12.0625 -5.328125 11.527344 -4.832031 10.539062 -4.832031 L 8.484375 -4.832031 C 7.535156 -4.832031 6.960938 -5.328125 6.960938 -6.355469 L 6.960938 -7.953125 C 6.960938 -8.371094 6.773438 -8.5625 6.355469 -8.5625 L 2.511719 -8.5625 C 2.128906 -8.5625 1.902344 -8.371094 1.902344 -7.953125 L 1.902344 -5.480469 C 1.902344 -1.902344 3.84375 0 7.382812 0 L 11.640625 0 C 15.21875 0 17.121094 -1.902344 17.121094 -5.480469 L 17.121094 -12.632812 C 17.121094 -13.355469 16.777344 -13.8125 16.132812 -14.039062 L 6.925781 -17.007812 L 6.925781 -20.242188 C 6.925781 -21.230469 7.496094 -21.761719 8.445312 -21.761719 L 10.539062 -21.761719 C 11.566406 -21.761719 12.0625 -21.230469 12.0625 -20.242188 L 12.0625 -18.644531 C 12.0625 -18.261719 12.289062 -18.035156 12.667969 -18.035156 L 16.511719 -18.035156 C 16.929688 -18.035156 17.121094 -18.261719 17.121094 -18.644531 L 17.121094 -21.15625 C 17.121094 -24.730469 15.21875 -26.632812 11.640625 -26.632812 Z M 7.382812 -26.632812 "/></g></g></g><g fill="#d9d9d9" fill-opacity="1"><g transform="translate(153.471316, 245.85602)"><g><path d="M 7.382812 -26.632812 C 3.84375 -26.632812 1.902344 -24.730469 1.902344 -21.15625 L 1.902344 -14.570312 C 1.902344 -13.847656 2.246094 -13.394531 2.929688 -13.164062 L 12.0625 -10.195312 L 12.0625 -6.355469 C 12.0625 -5.328125 11.527344 -4.832031 10.539062 -4.832031 L 8.484375 -4.832031 C 7.535156 -4.832031 6.960938 -5.328125 6.960938 -6.355469 L 6.960938 -7.953125 C 6.960938 -8.371094 6.773438 -8.5625 6.355469 -8.5625 L 2.511719 -8.5625 C 2.128906 -8.5625 1.902344 -8.371094 1.902344 -7.953125 L 1.902344 -5.480469 C 1.902344 -1.902344 3.84375 0 7.382812 0 L 11.640625 0 C 15.21875 0 17.121094 -1.902344 17.121094 -5.480469 L 17.121094 -12.632812 C 17.121094 -13.355469 16.777344 -13.8125 16.132812 -14.039062 L 6.925781 -17.007812 L 6.925781 -20.242188 C 6.925781 -21.230469 7.496094 -21.761719 8.445312 -21.761719 L 10.539062 -21.761719 C 11.566406 -21.761719 12.0625 -21.230469 12.0625 -20.242188 L 12.0625 -18.644531 C 12.0625 -18.261719 12.289062 -18.035156 12.667969 -18.035156 L 16.511719 -18.035156 C 16.929688 -18.035156 17.121094 -18.261719 17.121094 -18.644531 L 17.121094 -21.15625 C 17.121094 -24.730469 15.21875 -26.632812 11.640625 -26.632812 Z M 7.382812 -26.632812 "/></g></g></g><g fill="#d9d9d9" fill-opacity="1"><g transform="translate(172.490857, 245.85602)"><g><path d="M 1.75 -30.4375 C 1.371094 -30.4375 1.140625 -30.210938 1.140625 -29.828125 L 1.140625 -26.023438 C 1.140625 -25.644531 1.371094 -25.414062 1.75 -25.414062 L 6.164062 -25.414062 L 6.164062 -0.609375 C 6.164062 -0.191406 6.390625 0 6.773438 0 L 10.730469 0 C 11.148438 0 11.339844 -0.191406 11.339844 -0.609375 L 11.339844 -25.414062 L 15.75 -25.414062 C 16.171875 -25.414062 16.359375 -25.644531 16.359375 -26.023438 L 16.359375 -29.828125 C 16.359375 -30.210938 16.171875 -30.4375 15.75 -30.4375 Z M 1.75 -30.4375 "/></g></g></g><g fill="#d9d9d9" fill-opacity="1"><g transform="translate(189.988839, 245.85602)"><g><path d="M 17.121094 -21.15625 C 17.121094 -24.730469 15.21875 -26.632812 11.640625 -26.632812 L 2.511719 -26.632812 C 2.128906 -26.632812 1.902344 -26.40625 1.902344 -26.023438 L 1.902344 -0.609375 C 1.902344 -0.226562 2.128906 0 2.511719 0 L 6.238281 0 C 6.621094 0 6.847656 -0.226562 6.847656 -0.609375 L 6.847656 -8.027344 L 10.234375 -8.027344 L 12.0625 -0.53125 C 12.136719 -0.191406 12.328125 0 12.707031 0 L 16.4375 0 C 16.855469 0 17.082031 -0.226562 16.96875 -0.683594 L 14.992188 -8.863281 C 16.398438 -9.738281 17.121094 -11.300781 17.121094 -13.507812 Z M 6.847656 -12.9375 L 6.847656 -21.726562 L 10.652344 -21.726562 C 11.640625 -21.726562 12.175781 -21.191406 12.175781 -20.203125 L 12.175781 -14.457031 C 12.175781 -13.46875 11.640625 -12.9375 10.652344 -12.9375 Z M 6.847656 -12.9375 "/></g></g></g><g fill="#d9d9d9" fill-opacity="1"><g transform="translate(209.00838, 245.85602)"><g><path d="M 19.859375 0 C 20.316406 0 20.507812 -0.226562 20.394531 -0.648438 L 14.078125 -26.101562 C 14 -26.480469 13.773438 -26.632812 13.429688 -26.632812 L 8.140625 -26.632812 C 7.800781 -26.632812 7.570312 -26.480469 7.496094 -26.101562 L 1.179688 -0.648438 C 1.066406 -0.226562 1.253906 0 1.675781 0 L 5.402344 0 C 5.746094 0 5.933594 -0.191406 6.011719 -0.53125 L 7.191406 -5.328125 L 14.34375 -5.328125 L 15.5625 -0.53125 C 15.636719 -0.191406 15.828125 0 16.171875 0 Z M 13.164062 -9.738281 L 8.371094 -9.738281 L 10.765625 -20.089844 Z M 13.164062 -9.738281 "/></g></g></g><g fill="#d9d9d9" fill-opacity="1"><g transform="translate(230.576543, 245.85602)"><g><path d="M 2.511719 0 C 2.09375 0 1.902344 -0.226562 1.902344 -0.609375 L 1.902344 -26.023438 C 1.902344 -26.40625 2.09375 -26.632812 2.511719 -26.632812 L 6.46875 -26.632812 C 6.847656 -26.632812 7.078125 -26.40625 7.078125 -26.023438 L 7.078125 -0.609375 C 7.078125 -0.226562 6.847656 0 6.46875 0 Z M 2.511719 0 "/></g></g></g><g fill="#d9d9d9" fill-opacity="1"><g transform="translate(239.553769, 245.85602)"><g><path d="M 13.964844 -26.632812 C 13.542969 -26.632812 13.355469 -26.40625 13.355469 -26.023438 L 13.355469 -11.605469 L 6.203125 -26.136719 C 6.050781 -26.480469 5.859375 -26.632812 5.515625 -26.632812 L 2.511719 -26.632812 C 2.128906 -26.632812 1.902344 -26.40625 1.902344 -26.023438 L 1.902344 -0.609375 C 1.902344 -0.226562 2.128906 0 2.511719 0 L 6.085938 0 C 6.507812 0 6.695312 -0.226562 6.695312 -0.609375 L 6.695312 -15.027344 L 13.847656 -0.496094 C 14 -0.152344 14.191406 0 14.535156 0 L 17.539062 0 C 17.921875 0 18.148438 -0.226562 18.148438 -0.609375 L 18.148438 -26.023438 C 18.148438 -26.40625 17.921875 -26.632812 17.539062 -26.632812 Z M 13.964844 -26.632812 "/></g></g></g><g fill="#d9d9d9" fill-opacity="1"><g transform="translate(259.600372, 245.85602)"><g><path d="M 17.082031 -26.023438 C 17.082031 -26.40625 16.929688 -26.632812 16.472656 -26.632812 L 2.472656 -26.632812 C 2.128906 -26.632812 1.902344 -26.40625 1.902344 -26.023438 L 1.902344 -0.609375 C 1.902344 -0.226562 2.128906 0 2.472656 0 L 16.472656 0 C 16.929688 0 17.082031 -0.226562 17.082031 -0.609375 L 17.082031 -4.414062 C 17.082031 -4.832031 16.929688 -5.023438 16.472656 -5.023438 L 7.078125 -5.023438 L 7.078125 -10.652344 L 14.230469 -10.652344 C 14.609375 -10.652344 14.839844 -10.882812 14.839844 -11.300781 L 14.839844 -15.066406 C 14.839844 -15.484375 14.609375 -15.714844 14.230469 -15.714844 L 7.078125 -15.714844 L 7.078125 -21.574219 L 16.472656 -21.574219 C 16.929688 -21.574219 17.082031 -21.839844 17.082031 -22.21875 Z M 17.082031 -26.023438 "/></g></g></g><g fill="#d9d9d9" fill-opacity="1"><g transform="translate(278.581873, 245.85602)"><g><path d="M 17.121094 -21.15625 C 17.121094 -24.730469 15.21875 -26.632812 11.640625 -26.632812 L 2.511719 -26.632812 C 2.128906 -26.632812 1.902344 -26.40625 1.902344 -26.023438 L 1.902344 -0.609375 C 1.902344 -0.226562 2.128906 0 2.511719 0 L 6.238281 0 C 6.621094 0 6.847656 -0.226562 6.847656 -0.609375 L 6.847656 -8.027344 L 10.234375 -8.027344 L 12.0625 -0.53125 C 12.136719 -0.191406 12.328125 0 12.707031 0 L 16.4375 0 C 16.855469 0 17.082031 -0.226562 16.96875 -0.683594 L 14.992188 -8.863281 C 16.398438 -9.738281 17.121094 -11.300781 17.121094 -13.507812 Z M 6.847656 -12.9375 L 6.847656 -21.726562 L 10.652344 -21.726562 C 11.640625 -21.726562 12.175781 -21.191406 12.175781 -20.203125 L 12.175781 -14.457031 C 12.175781 -13.46875 11.640625 -12.9375 10.652344 -12.9375 Z M 6.847656 -12.9375 "/></g></g></g></svg>